<svg width="272" height="140" viewBox="0 0 272 140" fill="none" xmlns="http://www.w3.org/2000/svg">
<path fill-rule="evenodd" clip-rule="evenodd" d="M0 1H256.594L269.884 64.5H36H35.6844L35.5486 64.7849L10.0486 118.285L9.84168 118.719L10.2676 118.943L49.1261 139.343L49.2366 139.516L49.4334 139.505L50.2676 139.943L50.5314 139.44L160.029 132.999L160.674 132.961L160.476 132.347L150.976 102.847L150.877 102.54L150.557 102.503L76.0567 94.0032L75.9857 93.9951L75.9154 94.0072L26.4154 102.507L25.6732 102.635L26.0787 103.269L48.0403 137.644L11.1583 118.281L36.3156 65.5H270.5H271.115L270.989 64.8976L257.489 0.397568L257.406 0H257H0V1ZM27.3268 103.365L76.0143 95.0049L150.123 103.46L159.326 132.039L49.7634 138.484L27.3268 103.365Z" fill="black"/>
</svg>
