<svg width="500" height="224" viewBox="0 0 500 224" fill="none" xmlns="http://www.w3.org/2000/svg">
<path d="M88 4C195.335 4 348.489 4 411.611 4C430.015 4 447.477 11.9026 459.657 25.6996V25.6996C481.011 49.8886 481.016 86.247 459.755 110.518V110.518C447.539 124.464 429.868 132.5 411.328 132.5H88.427C73.7911 132.5 60.1236 139.815 52.005 151.992V151.992C42.2948 166.558 42.2843 185.643 51.8418 200.309V200.309C60.0042 212.834 74.0156 220.5 88.9656 220.5H156.5H324.586C331.852 220.5 338.778 217.42 343.645 212.024V212.024C352.391 202.327 352.396 187.535 343.744 177.754V177.754C338.841 172.211 331.763 169 324.362 169H168.28C160.754 169 153.553 172.068 148.338 177.495V177.495C138.925 187.292 138.023 202.477 146.211 213.32L150.5 219" stroke="black"/>
</svg>
